<?xml version="1.0" encoding="utf-8"?>
<!-- Generator: Adobe Illustrator 24.2.3, SVG Export Plug-In . SVG Version: 6.00 Build 0)  -->
<svg version="1.1" id="Ebene_3" xmlns="http://www.w3.org/2000/svg" xmlns:xlink="http://www.w3.org/1999/xlink" x="0px" y="0px"
	 width="76px" height="70px" viewBox="0 0 76 70" style="enable-background:new 0 0 76 70;" xml:space="preserve">
<style type="text/css">
	.st0{fill:#FFFFFF;}
	.st1{fill-rule:evenodd;clip-rule:evenodd;fill:#E20613;}
	.st2{fill-rule:evenodd;clip-rule:evenodd;fill:#353D8A;}
	.st3{fill-rule:evenodd;clip-rule:evenodd;fill:#3F3388;}
</style>
<g>
	<rect y="0.1" class="st0" width="76.1" height="69.9"/>
</g>
<g>
	<path class="st1" d="M38.2,28.6c3,0,5.4,2.4,5.4,5.4s-2.4,5.4-5.4,5.4S32.8,37,32.8,34S35.3,28.6,38.2,28.6L38.2,28.6z"/>
	<polygon class="st2" points="38,16.7 40.8,21.5 43.6,26.2 38,26.2 32.6,26.2 35.3,21.5 	"/>
	<polygon class="st3" points="33.4,41 43.1,41 43.1,50.7 33.4,50.7 	"/>
	<path class="st1" d="M23.9,54.7h-2.7V15.4h3.5c1.8,0,3.3,0.5,4.5,1.5c1.1,1,1.7,2.2,1.7,3.7c0,0.9-0.3,1.8-0.9,2.6
		c-0.5,0.7-1.1,1.2-1.7,1.4v0.1c0.7,0.2,1.5,1.4,2.3,3.3c1.1,2.8,1.6,6.4,1.6,10.8C32.2,49.4,29.4,54.7,23.9,54.7L23.9,54.7z
		 M24.9,22.8H25c0.7,0,1.3-0.2,1.7-0.7c0.4-0.4,0.7-1,0.7-1.6c0-1.2-0.8-1.8-2.4-1.8h-0.1L24.9,22.8L24.9,22.8z M24.9,50.7h0.2
		c0.9,0,1.7-1.4,2.4-4.1c0.7-2.6,1.1-5.2,1.1-7.8c0-2.8-0.3-5.6-1-8.3c-0.7-2.9-1.5-4.4-2.5-4.4H25L24.9,50.7L24.9,50.7z"/>
	<path class="st1" d="M54.9,51.9L54,55.3c-3.4,0-5.9-2.2-7.5-6.6c-1.2-3.5-1.9-8-1.9-13.7c0-6.1,0.7-11,2.2-14.6
		c1.5-3.8,3.8-5.7,6.7-5.7l1.1,3.3c-2,0-3.5,1.6-4.7,4.8c-1.1,3-1.6,7.1-1.6,12.2C48.3,46.2,50.5,51.9,54.9,51.9L54.9,51.9z"/>
</g>
</svg>
